# xmcd CD database file
#
# Track frame offsets:
#	150
#	15405
#	29570
#	46357
#	53147
#	72330
#	86095
#	96170
#	112926
#	119130
#	135946
#	155595
#	166440
#	173918
#	194918
#	205961
#	222371
#	238774
#
# Disc length: 3281 seconds
#
# Revision: 0
# Processed by: cddbd v1.4PL0 Copyright (c) Steve Scherf et al.
# Submitted via: CDex 1.50
#
DISCID=0a0ccf12
DTITLE=Yan Vagh - U AND EYE
DYEAR=2003
DGENRE=Jazz
TTITLE0=Le Present
TTITLE1=Pinball Wizard
TTITLE2=Le Pont ( The Bridge)
TTITLE3=Used Strings Of Americs
TTITLE4=Naima
TTITLE5=Tsim Tsoum
TTITLE6=Back to Bach
TTITLE7=Perfect Dance
TTITLE8=Un autred Brazil,
TTITLE9=Rock Salad
TTITLE10=Village Waves
TTITLE11=Mixing Girls
TTITLE12=Drumstrings
TTITLE13=Mobor Guimus (re-ing taric)
TTITLE14=Nature Boy
TTITLE15=Hijo de la Luna
TTITLE16=Jazablanca
TTITLE17=Dream Theme
EXTD=YEAR: 2003
EXTT0=
EXTT1=
EXTT2=
EXTT3=
EXTT4=
EXTT5=
EXTT6=
EXTT7=
EXTT8=
EXTT9=
EXTT10=
EXTT11=
EXTT12=
EXTT13=
EXTT14=
EXTT15=
EXTT16=
EXTT17=
PLAYORDER=
